HIERARCHY
ROOT Root
{
	OFFSET 0.00000 0.00000 0.00000
	CHANNELS 6 Xposition Yposition Zposition Zrotation Xrotation Yrotation
	JOINT Hips
	{
		OFFSET 0 0 0	
		CHANNELS 3 Zrotation Xrotation Yrotation
		JOINT Spine
		{
			OFFSET 0 4 0	
			CHANNELS 3 Zrotation Xrotation Yrotation
			JOINT Spine1
			{
				OFFSET 0 19.4 0	
				CHANNELS 3 Zrotation Xrotation Yrotation
				JOINT Spine2
				{
					OFFSET 0 16.6 0	
					CHANNELS 3 Zrotation Xrotation Yrotation
					JOINT LeftCollar
					{
						OFFSET 0 10 0	
						CHANNELS 3 Zrotation Xrotation Yrotation
						JOINT LeftArm
						{
							OFFSET 15.6 -2 3	
							CHANNELS 3 Zrotation Xrotation Yrotation
							JOINT LeftForeArm
							{
								OFFSET 3.5 -27 -1	
								CHANNELS 3 Zrotation Xrotation Yrotation
								JOINT LeftHand
								{
									OFFSET 1 -27 1	
									CHANNELS 3 Zrotation Xrotation Yrotation
									End Site
									{
										OFFSET 0 -15 0
									}
								}
							}
						}
					}
					JOINT RightCollar
					{
						OFFSET 0 10 0	
						CHANNELS 3 Zrotation Xrotation Yrotation
						JOINT RightArm
						{
							OFFSET -15.6 -2 3	
							CHANNELS 3 Zrotation Xrotation Yrotation
							JOINT RightForeArm
							{
								OFFSET -3.5 -27 -1	
								CHANNELS 3 Zrotation Xrotation Yrotation
								JOINT RightHand
								{
									OFFSET -1 -27 1	
									CHANNELS 3 Zrotation Xrotation Yrotation
									End Site
									{
										OFFSET 0 -15 0
									}
								}
							}
						}
					}
					JOINT Neck
					{
						OFFSET 0 10 0	
						CHANNELS 3 Zrotation Xrotation Yrotation
						JOINT Head
						{
							OFFSET 0 12.7 3	
							CHANNELS 3 Zrotation Xrotation Yrotation
							End Site
							{
								OFFSET 0 12.7 3
							}
						}
					}
				}
			}
		}
	}
	JOINT LeftHip
	{
		OFFSET 0 0 0	
		CHANNELS 3 Zrotation Xrotation Yrotation
		JOINT LeftUpLeg
		{
			OFFSET 8.8 -6 0	
			CHANNELS 3 Zrotation Xrotation Yrotation
			JOINT LeftLeg
			{
				OFFSET 0 -39 2	
				CHANNELS 3 Zrotation Xrotation Yrotation
				JOINT LeftFoot
				{
					OFFSET 0 -43 -2	
					CHANNELS 3 Zrotation Xrotation Yrotation
					JOINT LeftFootFront
					{
						OFFSET 0 -7 8.5	
						CHANNELS 3 Zrotation Xrotation Yrotation
						End Site
						{
							OFFSET 0 -0.5 9
						}
					}
				}
				JOINT LeftHeel
				{
					OFFSET 0 -43 -2	
					CHANNELS 3 Zrotation Xrotation Yrotation
					End Site
					{
						OFFSET 0 -7.5 -5
					}
				}
			}
		}
	}
	JOINT RightHip
	{
		OFFSET 0 0 0	
		CHANNELS 3 Zrotation Xrotation Yrotation
		JOINT RightUpLeg
		{
			OFFSET -8.8 -6 0	
			CHANNELS 3 Zrotation Xrotation Yrotation
			JOINT RightLeg
			{
				OFFSET 0 -39 2	
				CHANNELS 3 Zrotation Xrotation Yrotation
				JOINT RightFoot
				{
					OFFSET 0 -43 -2	
					CHANNELS 3 Zrotation Xrotation Yrotation
					JOINT RightFootFront
					{
						OFFSET 0 -7 8.5	
						CHANNELS 3 Zrotation Xrotation Yrotation
						End Site
						{
							OFFSET 0 -0.5 9
						}
					}
				}
				JOINT RightHeel
				{
					OFFSET 0 -43 -2	
					CHANNELS 3 Zrotation Xrotation Yrotation
					End Site
					{
						OFFSET 0 -7.5 -5
					}
				}
			}
		}
	}
}
MOTION
Frames: 23
Frame Time: 0.05
0 95.5 0 -0 0 -0 -0 0 -0 -0 0 -0 1.8886 10.73 0.64702 -0 0 -0 -0 0 -0 9.0361 -13.718 -0.36772 -58.472 -30.77 -102.95 -0 0 -0 -0 0 -0 -8.0374 -39.894 19.26 -80.558 -0.71098 -52.122 -0 0 -0 -4.6156 -13.089 -4.0207 -4.6156 -13.089 -4.0207 -0 0 -0 -0 0 -0 -0 0 -0 -0 0 -0 -0 0 -0 -0 0 -0 -0 0 -0 -0 0 -0 -0 0 -0 -0 0 -0 -0 0 -0 -0 0 -0 
0 95.5 0 -0 0 -0 -0 0 -0 -0 0 -0 1.8871 10.68 0.68839 -0 0 -0 -0 0 -0 9.0321 -13.689 -0.39563 -58.485 -30.753 -102.95 -0 0 -0 -0 0 -0 -8.0776 -39.866 19.21 -80.547 -0.68811 -52.074 -0 0 -0 -4.6209 -13.051 -4.0348 -4.6209 -13.051 -4.0348 -0 0 -0 -0 0 -0 -0 0 -0 -0 0 -0 -0 0 -0 -0 0 -0 -0 0 -0 -0 0 -0 -0 0 -0 -0 0 -0 -0 0 -0 -0 0 -0 
0 95.5 0 -0 0 -0 -0 0 -0 -0 0 -0 1.8854 10.609 0.69047 -0 0 -0 -0 0 -0 9.0443 -13.635 -0.38456 -58.503 -30.739 -102.95 -0 0 -0 -0 0 -0 -8.0817 -39.823 19.221 -80.535 -0.65678 -52.034 -0 0 -0 -4.6273 -13.012 -4.0299 -4.6273 -13.012 -4.0299 -0 0 -0 -0 0 -0 -0 0 -0 -0 0 -0 -0 0 -0 -0 0 -0 -0 0 -0 -0 0 -0 -0 0 -0 -0 0 -0 -0 0 -0 -0 0 -0 
0 95.5 0 -0 0 -0 -0 0 -0 -0 0 -0 1.9153 10.53 0.63942 -0 0 -0 -0 0 -0 9.0493 -13.569 -0.33507 -58.532 -30.731 -102.94 -0 0 -0 -0 0 -0 -8.0611 -39.776 19.328 -80.545 -0.60004 -52.004 -0 0 -0 -4.6654 -12.984 -4.0129 -4.6654 -12.984 -4.0129 -0 0 -0 -0 0 -0 -0 0 -0 -0 0 -0 -0 0 -0 -0 0 -0 -0 0 -0 -0 0 -0 -0 0 -0 -0 0 -0 -0 0 -0 -0 0 -0 
0 95.5 0 -0 0 -0 -0 0 -0 -0 0 -0 1.9981 10.396 0.5198 -0 0 -0 -0 0 -0 8.9766 -13.464 -0.28241 -58.499 -30.728 -102.9 -0 0 -0 -0 0 -0 -7.9288 -39.685 19.598 -80.694 -0.53268 -51.955 -0 0 -0 -4.7502 -12.911 -4.012 -4.7502 -12.911 -4.012 -0 0 -0 -0 0 -0 -0 0 -0 -0 0 -0 -0 0 -0 -0 0 -0 -0 0 -0 -0 0 -0 -0 0 -0 -0 0 -0 -0 0 -0 -0 0 -0 
0 95.5 0 -0 0 -0 -0 0 -0 -0 0 -0 2.0653 10.201 0.34281 -0 0 -0 -0 0 -0 8.8336 -13.37 -0.23446 -58.31 -30.698 -102.82 -0 0 -0 -0 0 -0 -7.4494 -39.74 20.084 -81.168 -0.55455 -51.866 -0 0 -0 -4.9242 -12.783 -4.1417 -4.9242 -12.783 -4.1417 -0 0 -0 -0 0 -0 -0 0 -0 -0 0 -0 -0 0 -0 -0 0 -0 -0 0 -0 -0 0 -0 -0 0 -0 -0 0 -0 -0 0 -0 -0 0 -0 
0 95.5 0 -0 0 -0 -0 0 -0 -0 0 -0 1.9678 9.9429 0.17617 -0 0 -0 -0 0 -0 8.8097 -13.44 -0.21019 -57.962 -30.591 -102.58 -0 0 -0 -0 0 -0 -6.5525 -40.203 20.581 -82.043 -1.0837 -51.542 -0 0 -0 -5.2043 -12.686 -4.592 -5.2043 -12.686 -4.592 -0 0 -0 -0 0 -0 -0 0 -0 -0 0 -0 -0 0 -0 -0 0 -0 -0 0 -0 -0 0 -0 -0 0 -0 -0 0 -0 -0 0 -0 -0 0 -0 
0 95.5 0 -0 0 -0 -0 0 -0 -0 0 -0 1.8204 9.4779 0.015663 -0 0 -0 -0 0 -0 8.893 -13.631 -0.18804 -57.568 -30.365 -102.06 -0 0 -0 -0 0 -0 -5.4655 -40.611 20.736 -83.224 -2.6826 -51.311 -0 0 -0 -5.6573 -12.675 -5.3517 -5.6573 -12.675 -5.3517 -0 0 -0 -0 0 -0 -0 0 -0 -0 0 -0 -0 0 -0 -0 0 -0 -0 0 -0 -0 0 -0 -0 0 -0 -0 0 -0 -0 0 -0 -0 0 -0 
0 95.5 0 -0 0 -0 -0 0 -0 -0 0 -0 1.778 8.8251 -0.013146 -0 0 -0 -0 0 -0 8.9196 -14.064 -0.30555 -57.16 -30.012 -101.17 -0 0 -0 -0 0 -0 -4.2855 -40.712 20.45 -84.866 -4.9484 -51.593 -0 0 -0 -6.2662 -12.708 -6.1694 -6.2662 -12.708 -6.1694 -0 0 -0 -0 0 -0 -0 0 -0 -0 0 -0 -0 0 -0 -0 0 -0 -0 0 -0 -0 0 -0 -0 0 -0 -0 0 -0 -0 0 -0 -0 0 -0 
0 95.5 0 -0 0 -0 -0 0 -0 -0 0 -0 1.7581 7.9013 0.13179 -0 0 -0 -0 0 -0 8.9416 -14.61 -0.54857 -56.694 -29.448 -99.854 -0 0 -0 -0 0 -0 -3.4511 -40.055 19.616 -86.203 -7.3513 -53.598 -0 0 -0 -6.7736 -12.632 -6.7956 -6.7736 -12.632 -6.7956 -0 0 -0 -0 0 -0 -0 0 -0 -0 0 -0 -0 0 -0 -0 0 -0 -0 0 -0 -0 0 -0 -0 0 -0 -0 0 -0 -0 0 -0 -0 0 -0 
0 95.5 0 -0 0 -0 -0 0 -0 -0 0 -0 1.7536 6.8404 0.29141 -0 0 -0 -0 0 -0 8.9224 -15.29 -0.71853 -56.044 -28.666 -98.178 -0 0 -0 -0 0 -0 -3.0153 -38.732 17.812 -86.699 -10.527 -57.406 -0 0 -0 -6.9845 -12.492 -7.0946 -6.9845 -12.492 -7.0945 -0 0 -0 -0 0 -0 -0 0 -0 -0 0 -0 -0 0 -0 -0 0 -0 -0 0 -0 -0 0 -0 -0 0 -0 -0 0 -0 -0 0 -0 -0 0 -0 
0 95.5 0 -0 0 -0 -0 0 -0 -0 0 -0 1.5811 5.8902 0.50326 -0 0 -0 -0 0 -0 9.0053 -16.14 -0.87316 -55.304 -27.919 -96.595 -0 0 -0 -0 0 -0 -2.7854 -37.449 14.961 -86.693 -14.388 -60.341 -0 0 -0 -6.814 -12.378 -7.1268 -6.814 -12.378 -7.1268 -0 0 -0 -0 0 -0 -0 0 -0 -0 0 -0 -0 0 -0 -0 0 -0 -0 0 -0 -0 0 -0 -0 0 -0 -0 0 -0 -0 0 -0 -0 0 -0 
0 95.5 0 -0 0 -0 -0 0 -0 -0 0 -0 1.1362 4.9422 0.59431 -0 0 -0 -0 0 -0 9.3185 -16.785 -0.99076 -54.689 -27.429 -95.338 -0 0 -0 -0 0 -0 -2.3734 -36.325 12.234 -86.553 -18.401 -62.012 -0 0 -0 -6.1985 -12.077 -6.9956 -6.1985 -12.077 -6.9956 -0 0 -0 -0 0 -0 -0 0 -0 -0 0 -0 -0 0 -0 -0 0 -0 -0 0 -0 -0 0 -0 -0 0 -0 -0 0 -0 -0 0 -0 -0 0 -0 
0 95.5 0 -0 0 -0 -0 0 -0 -0 0 -0 0.65504 3.8825 0.41376 -0 0 -0 -0 0 -0 9.6679 -17.083 -1.0686 -54.217 -27.22 -94.378 -0 0 -0 -0 0 -0 -1.7617 -35.279 10.614 -85.811 -21.849 -63.002 -0 0 -0 -5.4033 -11.457 -6.7865 -5.4033 -11.457 -6.7865 -0 0 -0 -0 0 -0 -0 0 -0 -0 0 -0 -0 0 -0 -0 0 -0 -0 0 -0 -0 0 -0 -0 0 -0 -0 0 -0 -0 0 -0 -0 0 -0 
0 95.5 0 -0 0 -0 -0 0 -0 -0 0 -0 0.19876 2.9481 0.14446 -0 0 -0 -0 0 -0 10.021 -17.347 -1.1264 -53.853 -27.016 -93.596 -0 0 -0 -0 0 -0 -1.0572 -34.74 10.214 -84.41 -24.522 -63.318 -0 0 -0 -4.6563 -10.688 -6.6285 -4.6563 -10.688 -6.6285 -0 0 -0 -0 0 -0 -0 0 -0 -0 0 -0 -0 0 -0 -0 0 -0 -0 0 -0 -0 0 -0 -0 0 -0 -0 0 -0 -0 0 -0 -0 0 -0 
0 95.5 0 -0 0 -0 -0 0 -0 -0 0 -0 -0.11626 2.1643 -0.062992 -0 0 -0 -0 0 -0 10.296 -17.62 -1.2543 -53.54 -26.71 -92.864 -0 0 -0 -0 0 -0 -0.42766 -34.784 10.873 -82.41 -26.246 -62.559 -0 0 -0 -4.1314 -9.9467 -6.5294 -4.1314 -9.9467 -6.5294 -0 0 -0 -0 0 -0 -0 0 -0 -0 0 -0 -0 0 -0 -0 0 -0 -0 0 -0 -0 0 -0 -0 0 -0 -0 0 -0 -0 0 -0 -0 0 -0 
0 95.5 0 -0 0 -0 -0 0 -0 -0 0 -0 -0.43668 1.2938 -0.12133 -0 0 -0 -0 0 -0 10.514 -17.68 -1.6547 -53.059 -26.449 -92.144 -0 0 -0 -0 0 -0 0.23827 -34.818 12.297 -79.986 -26.738 -62.143 -0 0 -0 -3.7709 -9.2513 -6.5045 -3.7709 -9.2513 -6.5045 -0 0 -0 -0 0 -0 -0 0 -0 -0 0 -0 -0 0 -0 -0 0 -0 -0 0 -0 -0 0 -0 -0 0 -0 -0 0 -0 -0 0 -0 -0 0 -0 
0 95.5 0 -0 0 -0 -0 0 -0 -0 0 -0 -0.8364 0.69563 0.049733 -0 0 -0 -0 0 -0 10.597 -17.855 -2.2788 -52.26 -26.207 -91.208 -0 0 -0 -0 0 -0 1.0918 -34.799 13.982 -77.81 -26.231 -63.174 -0 0 -0 -3.5107 -8.8333 -6.6318 -3.5107 -8.8333 -6.6318 -0 0 -0 -0 0 -0 -0 0 -0 -0 0 -0 -0 0 -0 -0 0 -0 -0 0 -0 -0 0 -0 -0 0 -0 -0 0 -0 -0 0 -0 -0 0 -0 
0 95.5 0 -0 0 -0 -0 0 -0 -0 0 -0 -1.1689 0.82434 0.30138 -0 0 -0 -0 0 -0 10.416 -18.479 -2.7057 -51.275 -25.875 -90.246 -0 0 -0 -0 0 -0 1.86 -35.209 15.843 -76.294 -24.977 -65.571 -0 0 -0 -3.3365 -8.9116 -6.8126 -3.3365 -8.9116 -6.8126 -0 0 -0 -0 0 -0 -0 0 -0 -0 0 -0 -0 0 -0 -0 0 -0 -0 0 -0 -0 0 -0 -0 0 -0 -0 0 -0 -0 0 -0 -0 0 -0 
0 95.5 0 -0 0 -0 -0 0 -0 -0 0 -0 -1.2109 1.3199 0.47437 -0 0 -0 -0 0 -0 9.8556 -19.018 -3.0485 -50.422 -25.746 -89.767 -0 0 -0 -0 0 -0 2.115 -35.933 17.875 -75.017 -23.193 -68.288 -0 0 -0 -3.2654 -9.232 -6.8806 -3.2654 -9.232 -6.8806 -0 0 -0 -0 0 -0 -0 0 -0 -0 0 -0 -0 0 -0 -0 0 -0 -0 0 -0 -0 0 -0 -0 0 -0 -0 0 -0 -0 0 -0 -0 0 -0 
0 95.5 0 -0 0 -0 -0 0 -0 -0 0 -0 -1.284 1.9249 0.63437 -0 0 -0 -0 0 -0 9.432 -19.238 -3.7081 -50.088 -26.066 -89.819 -0 0 -0 -0 0 -0 2.169 -36.757 20.02 -74.016 -21.065 -70.357 -0 0 -0 -3.1232 -9.5804 -6.8543 -3.1232 -9.5804 -6.8542 -0 0 -0 -0 0 -0 -0 0 -0 -0 0 -0 -0 0 -0 -0 0 -0 -0 0 -0 -0 0 -0 -0 0 -0 -0 0 -0 -0 0 -0 -0 0 -0 
0 95.5 0 -0 0 -0 -0 0 -0 -0 0 -0 -1.3289 2.6256 0.8187 -0 0 -0 -0 0 -0 9.1844 -19.291 -4.4833 -50.34 -26.613 -90.408 -0 0 -0 -0 0 -0 2.1505 -37.341 21.933 -73.672 -19.141 -72.693 -0 0 -0 -2.9954 -9.9135 -6.7397 -2.9954 -9.9135 -6.7397 -0 0 -0 -0 0 -0 -0 0 -0 -0 0 -0 -0 0 -0 -0 0 -0 -0 0 -0 -0 0 -0 -0 0 -0 -0 0 -0 -0 0 -0 -0 0 -0 
0 95.5 0 -0 0 -0 -0 0 -0 -0 0 -0 -1.1245 3.6641 1.057 -0 0 -0 -0 0 -0 8.8514 -19.49 -4.9842 -50.978 -27.016 -91.197 -0 0 -0 -0 0 -0 1.9802 -37.984 23.317 -73.911 -17.756 -75.816 -0 0 -0 -3.0218 -10.335 -6.4845 -3.0218 -10.335 -6.4845 -0 0 -0 -0 0 -0 -0 0 -0 -0 0 -0 -0 0 -0 -0 0 -0 -0 0 -0 -0 0 -0 -0 0 -0 -0 0 -0 -0 0 -0 -0 0 -0 
